<svg
  xmlns="http://www.w3.org/2000/svg"
  viewBox="0 0 48 48"
  width="24px"
  height="24px"
>
  <path
    fill="#EA4335"
    d="M24 9.5c3.14 0 5.97 1.2 8.2 3.16l6.13-6.13C34.62 3.12 29.6 1 24 1 14.72 1 6.87 6.49 3.28 14.13l7.25 5.63C12.77 13.19 17.97 9.5 24 9.5z"
  />
  <path
    fill="#34A853"
    d="M46.44 24.5c0-1.56-.14-3.08-.42-4.53H24v9.06h12.9c-.56 2.94-2.23 5.42-4.66 7.12l7.25 5.63c4.25-3.93 6.95-9.72 6.95-16.28z"
  />
  <path
    fill="#4A90E2"
    d="M13.37 28.38c-.63-1.87-1-3.87-1-5.88s.37-4.01 1-5.88L6.12 14.13C4.64 16.9 4 19.86 4 22.88s.64 5.98 2.12 8.75l7.25-5.63z"
  />
  <path
    fill="#FBBC05"
    d="M24 43c5.6 0 10.62-1.93 14.24-5.26l-7.25-5.63C28.97 33.8 26.14 35 24 35c-6.03 0-11.23-3.69-13.47-8.88l-7.25 5.63C6.87 39.51 14.72 45 24 45z"
  />
  <path fill="none" d="M0 0h48v48H0z" />
</svg>
